<?xml version="1.0" standalone="no"?><!DOCTYPE svg PUBLIC "-//W3C//DTD SVG 1.1//EN" "http://www.w3.org/Graphics/SVG/1.1/DTD/svg11.dtd"><svg t="1584596069352" class="icon" viewBox="0 0 1024 1024" version="1.1" xmlns="http://www.w3.org/2000/svg" p-id="8513" xmlns:xlink="http://www.w3.org/1999/xlink" width="1024" height="1024"><defs><style type="text/css">@font-face { font-family: uc-nexus-iconfont; src: url("chrome-extension://pogijhnlcfmcppgimcaccdkmbedjkmhi/res/font_9qmmi8b8jsxxbt9.woff") format("woff"), url("chrome-extension://pogijhnlcfmcppgimcaccdkmbedjkmhi/res/font_9qmmi8b8jsxxbt9.ttf") format("truetype"); }
</style></defs><path d="M920.086327 141.529568C693.393922 141.529568 537.299152 9.234001 535.699206 7.834048c-6.699776-5.699809-15.299487-8.499715-24.099193-7.699742-8.799705 0.799973-16.799437 5.199826-22.299253 11.999598-80.197313 100.796623-286.790391 127.395731-385.287091 127.395731-7.799739 0.999966-16.799437 3.299889-22.899233 9.399685-6.099796 5.999799-9.499682 14.299521-9.499682 22.799236L71.614755 542.016149c0 159.294663 243.591838 481.983851 442.985157 481.983851 208.793004 0 437.585338-330.08894 437.585338-470.284243l0-379.987268C952.285248 155.929085 937.785734 141.529568 920.086327 141.529568zM887.787409 553.715757c0 111.596261-207.293054 405.786404-373.087499 405.786404-158.594686 0-378.487318-289.79029-378.487318-417.486012l0-338.788649c79.297343-3.699876 275.790759-23.399216 382.287191-127.295735 53.098221 38.298717 186.993735 120.295969 369.287627 129.295668L887.787409 553.715757 887.787409 553.715757zM366.704868 314.423775c-7.699742-16.099461-26.899099-22.699239-42.998559-15.099494-16.099461 7.699742-22.799236 26.999095-15.199491 43.098556L482.900975 705.010688c5.299822 11.099628 16.499447 18.19939 28.799035 18.19939 0.099997 0 0.199993 0 0.29999 0 12.199591 0 23.399216-6.899769 28.899032-17.8994L720.992998 342.722827c7.899735-15.899467 1.49995-35.298817-14.499514-43.198553-15.899467-7.899735-35.298817-1.399953-43.198553 14.499514L512.399987 617.613616 366.704868 314.423775z" p-id="8514"></path></svg>