<?xml version="1.0" standalone="no"?><!DOCTYPE svg PUBLIC "-//W3C//DTD SVG 1.1//EN" "http://www.w3.org/Graphics/SVG/1.1/DTD/svg11.dtd"><svg t="1584595895462" class="icon" viewBox="0 0 1045 1024" version="1.1" xmlns="http://www.w3.org/2000/svg" p-id="3659" xmlns:xlink="http://www.w3.org/1999/xlink" width="1045" height="1024"><defs><style type="text/css">@font-face { font-family: uc-nexus-iconfont; src: url("chrome-extension://pogijhnlcfmcppgimcaccdkmbedjkmhi/res/font_9qmmi8b8jsxxbt9.woff") format("woff"), url("chrome-extension://pogijhnlcfmcppgimcaccdkmbedjkmhi/res/font_9qmmi8b8jsxxbt9.ttf") format("truetype"); }
</style></defs><path d="M640 1024H128c-70.4 0-128-57.6-128-128V384c0-70.4 57.6-128 128-128h48c19.2 0 32 12.8 32 32s-12.8 32-32 32H128c-35.2 0-64 28.8-64 64v512c0 35.2 28.8 64 64 64h512c32 0 64-32 64-64v-54.4c0-19.2 12.8-32 32-32s32 12.8 32 32V896c0 70.4-57.6 128-128 128" p-id="3660"></path><path d="M396.8 64c-32 0-64 32-64 64v512c0 35.2 28.8 64 64 64h512c35.2 0 64-28.8 64-64V128c0-35.2-28.8-64-64-64h-512z m512 704h-512c-70.4 0-128-57.6-128-128V128c0-70.4 57.6-128 128-128h512c70.421333 0 128 57.6 128 128v512c0 70.4-57.6 128-128 128z" p-id="3661"></path></svg>