<?xml version="1.0" standalone="no"?><!DOCTYPE svg PUBLIC "-//W3C//DTD SVG 1.1//EN" "http://www.w3.org/Graphics/SVG/1.1/DTD/svg11.dtd"><svg t="1584595996155" class="icon" viewBox="0 0 1024 1024" version="1.1" xmlns="http://www.w3.org/2000/svg" p-id="4616" xmlns:xlink="http://www.w3.org/1999/xlink" width="1024" height="1024"><defs><style type="text/css">@font-face { font-family: uc-nexus-iconfont; src: url("chrome-extension://pogijhnlcfmcppgimcaccdkmbedjkmhi/res/font_9qmmi8b8jsxxbt9.woff") format("woff"), url("chrome-extension://pogijhnlcfmcppgimcaccdkmbedjkmhi/res/font_9qmmi8b8jsxxbt9.ttf") format("truetype"); }
</style></defs><path d="M816.299 816.44a27.392 27.392 0 0 1-40.335-0.824 31.573 31.573 0 0 1 0.768-42.752c66.617-67.982 104.904-161.48 104.904-261.49 0-99.442-37.832-192.398-103.766-260.323a31.573 31.573 0 0 1-0.569-42.78 27.392 27.392 0 0 1 40.306-0.598c76.857 79.19 121.06 187.705 121.06 303.701 0 116.622-44.715 225.764-122.368 305.067zM702.976 673.964a28.018 28.018 0 0 1-40.249 0.37 29.497 29.497 0 0 1-0.37-41.074 175.56 175.56 0 0 0 48.868-122.084 175.56 175.56 0 0 0-47.502-120.69 29.497 29.497 0 0 1 0.853-41.073 28.018 28.018 0 0 1 40.22 0.853 234.325 234.325 0 0 1 63.318 160.91c0 61.696-23.666 119.637-65.138 162.788zM509.383 929.479l-200.05-130.304h-167.11a56.889 56.889 0 0 1-56.89-56.889V301.141a56.889 56.889 0 0 1 56.89-56.889h167.11L506.34 96.626a56.889 56.889 0 0 1 90.993 45.568v739.64a56.889 56.889 0 0 1-87.95 47.674z m31.061-47.673v-739.64L328.277 301.17H142.222v441.116H326.23l214.187 139.492z" p-id="4617"></path></svg>